<mxfile host="Electron" agent="Mozilla/5.0 (Windows NT 10.0; Win64; x64) AppleWebKit/537.36 (KHTML, like Gecko) draw.io/28.1.2 Chrome/138.0.7204.243 Electron/37.4.0 Safari/537.36" version="28.1.2">
  <diagram name="Página-1" id="DXV36eIeYM3IPIaF0B2E">
    <mxGraphModel dx="4852" dy="2082" grid="1" gridSize="10" guides="1" tooltips="1" connect="1" arrows="1" fold="1" page="0" pageScale="1" pageWidth="827" pageHeight="1169" math="0" shadow="0">
      <root>
        <mxCell id="0" />
        <mxCell id="1" parent="0" />
        <mxCell id="L3NOBXTdYQaS6EHQkUNU-1" value="Enunciado 7 Modelo Entidad Interrelación&lt;br&gt;Una empresa dedicada a comercializar cocinas desea aumentar su control sobre aquellos&lt;br&gt;elementos que le afectan. Del resultado del análisis que realiza obtiene las siguientes informaciones:&lt;div&gt;&lt;br&gt;Hay una serie de fabricantes de muebles de cocina.&lt;/div&gt;&lt;div&gt;&amp;nbsp;De cada &lt;span style=&quot;background-color: rgb(128, 255, 0);&quot;&gt;fabricante &lt;/span&gt;se dispone de un&lt;br&gt;&lt;span style=&quot;background-color: rgb(128, 255, 0);&quot;&gt;nombre, una dirección y una relación de números de teléfono.&amp;nbsp;&lt;/span&gt;&lt;/div&gt;&lt;div&gt;Cada uno de ellos fabrica varios muebles de cocina.&amp;nbsp;&lt;/div&gt;&lt;div&gt;&lt;br&gt;&lt;/div&gt;&lt;div&gt;Un &lt;span style=&quot;background-color: rgb(128, 255, 0);&quot;&gt;mueble de cocina &lt;/span&gt;tiene una determinada &lt;span style=&quot;background-color: rgb(0, 0, 255);&quot;&gt;línea un determinado color,&lt;br&gt;unas dimensiones dadas (ancho, alto, largo), y puede tener una de las siguientes categorías:&lt;br&gt;mueble alto, mueble bajo, panel y encimera.&lt;/span&gt;&amp;nbsp;&lt;/div&gt;&lt;div&gt;&lt;br&gt;&lt;/div&gt;&lt;div&gt;De los &lt;font style=&quot;color: rgb(204, 0, 0);&quot;&gt;muebles bajos&lt;/font&gt; &lt;font style=&quot;color: rgb(204, 0, 0);&quot;&gt;interesa saber la altura sobre el suelo y de las encimeras interesa saber su tipo (mármol o aglomerado)&lt;/font&gt;&lt;br&gt;&lt;br&gt;&lt;/div&gt;&lt;div&gt;Cada Fabricante puede trabajar con varios distribuidores y cada distribuidor trabaja al menos&lt;br&gt;con un fabricante.&amp;nbsp;&lt;/div&gt;&lt;div&gt;De un &lt;font style=&quot;color: rgb(255, 255, 0);&quot;&gt;distribuidor &lt;/font&gt;se dispone &lt;font style=&quot;color: rgb(255, 255, 0);&quot;&gt;del nombre, dirección, y una relación denúmeros de teléfono.&lt;/font&gt;&lt;br&gt;&lt;br&gt;&lt;/div&gt;&lt;div&gt;De una &lt;font style=&quot;color: rgb(204, 0, 102);&quot;&gt;cocina se identifica por un código y nos interesa saber el número de muebles que lacomponen.&lt;/font&gt;&lt;br&gt;Cada cocina la puede vender un único distribuidor ,&amp;nbsp;&lt;/div&gt;&lt;div&gt;aunque cada distribuidor puede vender varias cocinas.&amp;nbsp;&lt;/div&gt;&lt;div&gt;&lt;span style=&quot;background-color: transparent; color: light-dark(rgb(0, 0, 0), rgb(255, 255, 255));&quot;&gt;Un distribuidor puede ceder una cocina a otro, para que éste pueda venderla.&lt;/span&gt;&lt;/div&gt;&lt;div&gt;Cada cocina la debe montar al menos un montador y el mismo montador puede montar varias&lt;br&gt;cocinas.&lt;/div&gt;&lt;div&gt;&amp;nbsp;De un &lt;font style=&quot;color: rgb(51, 255, 255);&quot;&gt;montador &lt;/font&gt;nos interesa s&lt;font style=&quot;color: rgb(51, 255, 255);&quot;&gt;u NIF, nombre, dirección, único número de teléfono y el&lt;br&gt;número de cocinas que ha montado.&lt;/font&gt;&lt;br&gt;Cada cocina pueden comprarla uno o varios clientes y el mismo cliente puede comprar varias&lt;br&gt;cocinas.&lt;/div&gt;&lt;div&gt;&amp;nbsp;De un &lt;font style=&quot;color: rgb(0, 153, 0);&quot;&gt;cliente&lt;/font&gt;&lt;font style=&quot;color: rgb(0, 153, 0);&quot;&gt;&lt;font style=&quot;color: rgb(0, 153, 0);&quot;&gt; &lt;/font&gt;nos interesa su NIF, su nombre, dirección y único número de teléfono&lt;/font&gt;&lt;/div&gt;" style="text;whiteSpace=wrap;html=1;fontFamily=Architects Daughter;fontSource=https%3A%2F%2Ffonts.googleapis.com%2Fcss%3Ffamily%3DArchitects%2BDaughter;" parent="1" vertex="1">
          <mxGeometry x="-975" y="-390" width="890" height="450" as="geometry" />
        </mxCell>
        <mxCell id="L3NOBXTdYQaS6EHQkUNU-65" value="" style="edgeStyle=orthogonalEdgeStyle;rounded=0;sketch=1;hachureGap=4;jiggle=2;curveFitting=1;orthogonalLoop=1;jettySize=auto;html=1;fontFamily=Architects Daughter;fontSource=https%3A%2F%2Ffonts.googleapis.com%2Fcss%3Ffamily%3DArchitects%2BDaughter;" parent="1" source="L3NOBXTdYQaS6EHQkUNU-5" target="L3NOBXTdYQaS6EHQkUNU-64" edge="1">
          <mxGeometry relative="1" as="geometry">
            <Array as="points">
              <mxPoint x="-450" y="535" />
              <mxPoint x="-450" y="535" />
            </Array>
          </mxGeometry>
        </mxCell>
        <mxCell id="L3NOBXTdYQaS6EHQkUNU-68" value="&amp;nbsp;1 : 1" style="edgeLabel;html=1;align=center;verticalAlign=middle;resizable=0;points=[];sketch=1;hachureGap=4;jiggle=2;curveFitting=1;fontFamily=Architects Daughter;fontSource=https%3A%2F%2Ffonts.googleapis.com%2Fcss%3Ffamily%3DArchitects%2BDaughter;" parent="L3NOBXTdYQaS6EHQkUNU-65" vertex="1" connectable="0">
          <mxGeometry x="0.0782" y="1" relative="1" as="geometry">
            <mxPoint as="offset" />
          </mxGeometry>
        </mxCell>
        <mxCell id="heVfO0h5czRBwWw8JGmx-16" style="edgeStyle=orthogonalEdgeStyle;rounded=0;sketch=1;hachureGap=4;jiggle=2;curveFitting=1;orthogonalLoop=1;jettySize=auto;html=1;entryX=0;entryY=0.5;entryDx=0;entryDy=0;fontFamily=Architects Daughter;fontSource=https%3A%2F%2Ffonts.googleapis.com%2Fcss%3Ffamily%3DArchitects%2BDaughter;" edge="1" parent="1">
          <mxGeometry relative="1" as="geometry">
            <mxPoint x="-490" y="535.0000000000002" as="sourcePoint" />
            <mxPoint x="-160" y="380" as="targetPoint" />
            <Array as="points">
              <mxPoint x="-420" y="535" />
              <mxPoint x="-420" y="380" />
            </Array>
          </mxGeometry>
        </mxCell>
        <mxCell id="heVfO0h5czRBwWw8JGmx-36" value="1 : 1&amp;nbsp;" style="edgeLabel;html=1;align=center;verticalAlign=middle;resizable=0;points=[];sketch=1;hachureGap=4;jiggle=2;curveFitting=1;fontFamily=Architects Daughter;fontSource=https%3A%2F%2Ffonts.googleapis.com%2Fcss%3Ffamily%3DArchitects%2BDaughter;" vertex="1" connectable="0" parent="heVfO0h5czRBwWw8JGmx-16">
          <mxGeometry x="-0.8268" y="1" relative="1" as="geometry">
            <mxPoint y="1" as="offset" />
          </mxGeometry>
        </mxCell>
        <mxCell id="L3NOBXTdYQaS6EHQkUNU-5" value="Fabricante" style="rounded=0;whiteSpace=wrap;html=1;sketch=1;hachureGap=4;jiggle=2;curveFitting=1;fontFamily=Architects Daughter;fontSource=https%3A%2F%2Ffonts.googleapis.com%2Fcss%3Ffamily%3DArchitects%2BDaughter;" parent="1" vertex="1">
          <mxGeometry x="-640" y="505" width="120" height="60" as="geometry" />
        </mxCell>
        <mxCell id="L3NOBXTdYQaS6EHQkUNU-6" value="encimera" style="rounded=0;whiteSpace=wrap;html=1;sketch=1;hachureGap=4;jiggle=2;curveFitting=1;fontFamily=Architects Daughter;fontSource=https%3A%2F%2Ffonts.googleapis.com%2Fcss%3Ffamily%3DArchitects%2BDaughter;" parent="1" vertex="1">
          <mxGeometry x="-30" y="730" width="120" height="60" as="geometry" />
        </mxCell>
        <mxCell id="L3NOBXTdYQaS6EHQkUNU-81" value="" style="edgeStyle=orthogonalEdgeStyle;rounded=0;sketch=1;hachureGap=4;jiggle=2;curveFitting=1;orthogonalLoop=1;jettySize=auto;html=1;fontFamily=Architects Daughter;fontSource=https%3A%2F%2Ffonts.googleapis.com%2Fcss%3Ffamily%3DArchitects%2BDaughter;" parent="1" source="L3NOBXTdYQaS6EHQkUNU-7" target="L3NOBXTdYQaS6EHQkUNU-80" edge="1">
          <mxGeometry relative="1" as="geometry" />
        </mxCell>
        <mxCell id="L3NOBXTdYQaS6EHQkUNU-83" value="&amp;nbsp;1 : N&amp;nbsp;" style="edgeLabel;html=1;align=center;verticalAlign=middle;resizable=0;points=[];sketch=1;hachureGap=4;jiggle=2;curveFitting=1;fontFamily=Architects Daughter;fontSource=https%3A%2F%2Ffonts.googleapis.com%2Fcss%3Ffamily%3DArchitects%2BDaughter;" parent="L3NOBXTdYQaS6EHQkUNU-81" vertex="1" connectable="0">
          <mxGeometry x="-0.0536" y="1" relative="1" as="geometry">
            <mxPoint as="offset" />
          </mxGeometry>
        </mxCell>
        <mxCell id="L3NOBXTdYQaS6EHQkUNU-92" value="" style="edgeStyle=orthogonalEdgeStyle;rounded=0;sketch=1;hachureGap=4;jiggle=2;curveFitting=1;orthogonalLoop=1;jettySize=auto;html=1;fontFamily=Architects Daughter;fontSource=https%3A%2F%2Ffonts.googleapis.com%2Fcss%3Ffamily%3DArchitects%2BDaughter;" parent="1" source="L3NOBXTdYQaS6EHQkUNU-7" target="L3NOBXTdYQaS6EHQkUNU-91" edge="1">
          <mxGeometry relative="1" as="geometry">
            <Array as="points">
              <mxPoint x="-1055" y="560" />
              <mxPoint x="-1055" y="605" />
            </Array>
          </mxGeometry>
        </mxCell>
        <mxCell id="L3NOBXTdYQaS6EHQkUNU-95" value="&amp;nbsp;1 : n" style="edgeLabel;html=1;align=center;verticalAlign=middle;resizable=0;points=[];sketch=1;hachureGap=4;jiggle=2;curveFitting=1;fontFamily=Architects Daughter;fontSource=https%3A%2F%2Ffonts.googleapis.com%2Fcss%3Ffamily%3DArchitects%2BDaughter;" parent="L3NOBXTdYQaS6EHQkUNU-92" vertex="1" connectable="0">
          <mxGeometry x="0.0398" y="-3" relative="1" as="geometry">
            <mxPoint as="offset" />
          </mxGeometry>
        </mxCell>
        <mxCell id="heVfO0h5czRBwWw8JGmx-29" style="edgeStyle=orthogonalEdgeStyle;rounded=0;sketch=1;hachureGap=4;jiggle=2;curveFitting=1;orthogonalLoop=1;jettySize=auto;html=1;fontFamily=Architects Daughter;fontSource=https%3A%2F%2Ffonts.googleapis.com%2Fcss%3Ffamily%3DArchitects%2BDaughter;entryX=1;entryY=0.5;entryDx=0;entryDy=0;" edge="1" parent="1" source="L3NOBXTdYQaS6EHQkUNU-7" target="heVfO0h5czRBwWw8JGmx-30">
          <mxGeometry relative="1" as="geometry">
            <mxPoint x="-1090" y="520" as="targetPoint" />
          </mxGeometry>
        </mxCell>
        <mxCell id="heVfO0h5czRBwWw8JGmx-39" value="1 : 1" style="edgeLabel;html=1;align=center;verticalAlign=middle;resizable=0;points=[];sketch=1;hachureGap=4;jiggle=2;curveFitting=1;fontFamily=Architects Daughter;fontSource=https%3A%2F%2Ffonts.googleapis.com%2Fcss%3Ffamily%3DArchitects%2BDaughter;" vertex="1" connectable="0" parent="heVfO0h5czRBwWw8JGmx-29">
          <mxGeometry x="0.0869" y="-1" relative="1" as="geometry">
            <mxPoint as="offset" />
          </mxGeometry>
        </mxCell>
        <mxCell id="L3NOBXTdYQaS6EHQkUNU-7" value="distribuidor" style="rounded=0;whiteSpace=wrap;html=1;sketch=1;hachureGap=4;jiggle=2;curveFitting=1;fontFamily=Architects Daughter;fontSource=https%3A%2F%2Ffonts.googleapis.com%2Fcss%3Ffamily%3DArchitects%2BDaughter;" parent="1" vertex="1">
          <mxGeometry x="-1010" y="505" width="120" height="60" as="geometry" />
        </mxCell>
        <mxCell id="L3NOBXTdYQaS6EHQkUNU-76" style="edgeStyle=orthogonalEdgeStyle;rounded=0;sketch=1;hachureGap=4;jiggle=2;curveFitting=1;orthogonalLoop=1;jettySize=auto;html=1;fontFamily=Architects Daughter;fontSource=https%3A%2F%2Ffonts.googleapis.com%2Fcss%3Ffamily%3DArchitects%2BDaughter;endArrow=none;endFill=0;" parent="1" source="L3NOBXTdYQaS6EHQkUNU-13" edge="1">
          <mxGeometry relative="1" as="geometry">
            <mxPoint x="-580" y="500" as="targetPoint" />
          </mxGeometry>
        </mxCell>
        <mxCell id="L3NOBXTdYQaS6EHQkUNU-13" value="nombre" style="ellipse;whiteSpace=wrap;html=1;sketch=1;hachureGap=4;jiggle=2;curveFitting=1;fontFamily=Architects Daughter;fontSource=https%3A%2F%2Ffonts.googleapis.com%2Fcss%3Ffamily%3DArchitects%2BDaughter;" parent="1" vertex="1">
          <mxGeometry x="-680" y="390" width="100" height="40" as="geometry" />
        </mxCell>
        <mxCell id="L3NOBXTdYQaS6EHQkUNU-14" value="direccion" style="ellipse;whiteSpace=wrap;html=1;sketch=1;hachureGap=4;jiggle=2;curveFitting=1;fontFamily=Architects Daughter;fontSource=https%3A%2F%2Ffonts.googleapis.com%2Fcss%3Ffamily%3DArchitects%2BDaughter;" parent="1" vertex="1">
          <mxGeometry x="-680" y="350" width="100" height="40" as="geometry" />
        </mxCell>
        <mxCell id="L3NOBXTdYQaS6EHQkUNU-15" value="telefono" style="ellipse;whiteSpace=wrap;html=1;sketch=1;hachureGap=4;jiggle=2;curveFitting=1;fontFamily=Architects Daughter;fontSource=https%3A%2F%2Ffonts.googleapis.com%2Fcss%3Ffamily%3DArchitects%2BDaughter;" parent="1" vertex="1">
          <mxGeometry x="-549.42" y="340" width="100" height="40" as="geometry" />
        </mxCell>
        <mxCell id="L3NOBXTdYQaS6EHQkUNU-75" style="edgeStyle=orthogonalEdgeStyle;rounded=0;sketch=1;hachureGap=4;jiggle=2;curveFitting=1;orthogonalLoop=1;jettySize=auto;html=1;entryX=0.5;entryY=0;entryDx=0;entryDy=0;fontFamily=Architects Daughter;fontSource=https%3A%2F%2Ffonts.googleapis.com%2Fcss%3Ffamily%3DArchitects%2BDaughter;endArrow=none;endFill=0;" parent="1" source="L3NOBXTdYQaS6EHQkUNU-20" target="L3NOBXTdYQaS6EHQkUNU-5" edge="1">
          <mxGeometry relative="1" as="geometry" />
        </mxCell>
        <mxCell id="L3NOBXTdYQaS6EHQkUNU-20" value="codigo" style="ellipse;whiteSpace=wrap;html=1;sketch=1;hachureGap=4;jiggle=2;curveFitting=1;fontFamily=Architects Daughter;fontSource=https%3A%2F%2Ffonts.googleapis.com%2Fcss%3Ffamily%3DArchitects%2BDaughter;fillColor=#60a917;fontColor=#ffffff;strokeColor=#2D7600;" parent="1" vertex="1">
          <mxGeometry x="-580" y="390" width="100" height="40" as="geometry" />
        </mxCell>
        <mxCell id="L3NOBXTdYQaS6EHQkUNU-79" style="edgeStyle=orthogonalEdgeStyle;rounded=0;sketch=1;hachureGap=4;jiggle=2;curveFitting=1;orthogonalLoop=1;jettySize=auto;html=1;fontFamily=Architects Daughter;fontSource=https%3A%2F%2Ffonts.googleapis.com%2Fcss%3Ffamily%3DArchitects%2BDaughter;endArrow=none;endFill=0;" parent="1" source="L3NOBXTdYQaS6EHQkUNU-22" edge="1">
          <mxGeometry relative="1" as="geometry">
            <mxPoint x="-950" y="500" as="targetPoint" />
          </mxGeometry>
        </mxCell>
        <mxCell id="L3NOBXTdYQaS6EHQkUNU-22" value="nombre" style="ellipse;whiteSpace=wrap;html=1;sketch=1;hachureGap=4;jiggle=2;curveFitting=1;fontFamily=Architects Daughter;fontSource=https%3A%2F%2Ffonts.googleapis.com%2Fcss%3Ffamily%3DArchitects%2BDaughter;" parent="1" vertex="1">
          <mxGeometry x="-1050" y="410" width="100" height="40" as="geometry" />
        </mxCell>
        <mxCell id="L3NOBXTdYQaS6EHQkUNU-23" value="direccion" style="ellipse;whiteSpace=wrap;html=1;sketch=1;hachureGap=4;jiggle=2;curveFitting=1;fontFamily=Architects Daughter;fontSource=https%3A%2F%2Ffonts.googleapis.com%2Fcss%3Ffamily%3DArchitects%2BDaughter;" parent="1" vertex="1">
          <mxGeometry x="-1060" y="370" width="100" height="40" as="geometry" />
        </mxCell>
        <mxCell id="L3NOBXTdYQaS6EHQkUNU-24" value="telefono" style="ellipse;whiteSpace=wrap;html=1;sketch=1;hachureGap=4;jiggle=2;curveFitting=1;fontFamily=Architects Daughter;fontSource=https%3A%2F%2Ffonts.googleapis.com%2Fcss%3Ffamily%3DArchitects%2BDaughter;" parent="1" vertex="1">
          <mxGeometry x="-960" y="370" width="100" height="40" as="geometry" />
        </mxCell>
        <mxCell id="L3NOBXTdYQaS6EHQkUNU-78" style="edgeStyle=orthogonalEdgeStyle;rounded=0;sketch=1;hachureGap=4;jiggle=2;curveFitting=1;orthogonalLoop=1;jettySize=auto;html=1;entryX=0.5;entryY=0;entryDx=0;entryDy=0;fontFamily=Architects Daughter;fontSource=https%3A%2F%2Ffonts.googleapis.com%2Fcss%3Ffamily%3DArchitects%2BDaughter;endArrow=none;endFill=0;" parent="1" source="L3NOBXTdYQaS6EHQkUNU-25" target="L3NOBXTdYQaS6EHQkUNU-7" edge="1">
          <mxGeometry relative="1" as="geometry" />
        </mxCell>
        <mxCell id="L3NOBXTdYQaS6EHQkUNU-25" value="codigo" style="ellipse;whiteSpace=wrap;html=1;sketch=1;hachureGap=4;jiggle=2;curveFitting=1;fontFamily=Architects Daughter;fontSource=https%3A%2F%2Ffonts.googleapis.com%2Fcss%3Ffamily%3DArchitects%2BDaughter;fillColor=#60a917;fontColor=#ffffff;strokeColor=#2D7600;" parent="1" vertex="1">
          <mxGeometry x="-950" y="410" width="100" height="40" as="geometry" />
        </mxCell>
        <mxCell id="heVfO0h5czRBwWw8JGmx-5" style="edgeStyle=orthogonalEdgeStyle;rounded=0;sketch=1;hachureGap=4;jiggle=2;curveFitting=1;orthogonalLoop=1;jettySize=auto;html=1;entryX=0.5;entryY=0;entryDx=0;entryDy=0;fontFamily=Architects Daughter;fontSource=https%3A%2F%2Ffonts.googleapis.com%2Fcss%3Ffamily%3DArchitects%2BDaughter;" edge="1" parent="1" source="heVfO0h5czRBwWw8JGmx-34" target="heVfO0h5czRBwWw8JGmx-4">
          <mxGeometry relative="1" as="geometry" />
        </mxCell>
        <mxCell id="L3NOBXTdYQaS6EHQkUNU-47" value="mueble" style="rounded=0;whiteSpace=wrap;html=1;sketch=1;hachureGap=4;jiggle=2;curveFitting=1;fontFamily=Architects Daughter;fontSource=https%3A%2F%2Ffonts.googleapis.com%2Fcss%3Ffamily%3DArchitects%2BDaughter;perimeterSpacing=2;strokeWidth=6;" parent="1" vertex="1">
          <mxGeometry x="-150" y="470" width="210" height="110" as="geometry" />
        </mxCell>
        <mxCell id="L3NOBXTdYQaS6EHQkUNU-48" value="mueble alto" style="rounded=0;whiteSpace=wrap;html=1;sketch=1;hachureGap=4;jiggle=2;curveFitting=1;fontFamily=Architects Daughter;fontSource=https%3A%2F%2Ffonts.googleapis.com%2Fcss%3Ffamily%3DArchitects%2BDaughter;" parent="1" vertex="1">
          <mxGeometry x="-290" y="730" width="120" height="60" as="geometry" />
        </mxCell>
        <mxCell id="L3NOBXTdYQaS6EHQkUNU-50" value="mueble bajo" style="rounded=0;whiteSpace=wrap;html=1;sketch=1;hachureGap=4;jiggle=2;curveFitting=1;fontFamily=Architects Daughter;fontSource=https%3A%2F%2Ffonts.googleapis.com%2Fcss%3Ffamily%3DArchitects%2BDaughter;" parent="1" vertex="1">
          <mxGeometry x="-160" y="730" width="120" height="60" as="geometry" />
        </mxCell>
        <mxCell id="L3NOBXTdYQaS6EHQkUNU-55" value="linea" style="ellipse;whiteSpace=wrap;html=1;sketch=1;hachureGap=4;jiggle=2;curveFitting=1;fontFamily=Architects Daughter;fontSource=https%3A%2F%2Ffonts.googleapis.com%2Fcss%3Ffamily%3DArchitects%2BDaughter;" parent="1" vertex="1">
          <mxGeometry x="-190" y="360" width="100" height="40" as="geometry" />
        </mxCell>
        <mxCell id="L3NOBXTdYQaS6EHQkUNU-56" value="color" style="ellipse;whiteSpace=wrap;html=1;sketch=1;hachureGap=4;jiggle=2;curveFitting=1;fontFamily=Architects Daughter;fontSource=https%3A%2F%2Ffonts.googleapis.com%2Fcss%3Ffamily%3DArchitects%2BDaughter;" parent="1" vertex="1">
          <mxGeometry x="-200" y="410" width="100" height="40" as="geometry" />
        </mxCell>
        <mxCell id="L3NOBXTdYQaS6EHQkUNU-57" value="ancho" style="ellipse;whiteSpace=wrap;html=1;sketch=1;hachureGap=4;jiggle=2;curveFitting=1;fontFamily=Architects Daughter;fontSource=https%3A%2F%2Ffonts.googleapis.com%2Fcss%3Ffamily%3DArchitects%2BDaughter;" parent="1" vertex="1">
          <mxGeometry x="-90" y="410" width="100" height="40" as="geometry" />
        </mxCell>
        <mxCell id="L3NOBXTdYQaS6EHQkUNU-58" value="alto" style="ellipse;whiteSpace=wrap;html=1;sketch=1;hachureGap=4;jiggle=2;curveFitting=1;fontFamily=Architects Daughter;fontSource=https%3A%2F%2Ffonts.googleapis.com%2Fcss%3Ffamily%3DArchitects%2BDaughter;" parent="1" vertex="1">
          <mxGeometry x="10" y="410" width="100" height="40" as="geometry" />
        </mxCell>
        <mxCell id="L3NOBXTdYQaS6EHQkUNU-59" value="largo" style="ellipse;whiteSpace=wrap;html=1;sketch=1;hachureGap=4;jiggle=2;curveFitting=1;fontFamily=Architects Daughter;fontSource=https%3A%2F%2Ffonts.googleapis.com%2Fcss%3Ffamily%3DArchitects%2BDaughter;" parent="1" vertex="1">
          <mxGeometry x="10" y="360" width="100" height="40" as="geometry" />
        </mxCell>
        <mxCell id="L3NOBXTdYQaS6EHQkUNU-61" value="Panel" style="rounded=0;whiteSpace=wrap;html=1;sketch=1;hachureGap=4;jiggle=2;curveFitting=1;fontFamily=Architects Daughter;fontSource=https%3A%2F%2Ffonts.googleapis.com%2Fcss%3Ffamily%3DArchitects%2BDaughter;" parent="1" vertex="1">
          <mxGeometry x="100" y="730" width="120" height="60" as="geometry" />
        </mxCell>
        <mxCell id="L3NOBXTdYQaS6EHQkUNU-64" value="produce" style="rhombus;whiteSpace=wrap;html=1;fontFamily=Architects Daughter;rounded=0;sketch=1;hachureGap=4;jiggle=2;curveFitting=1;fontSource=https%3A%2F%2Ffonts.googleapis.com%2Fcss%3Ffamily%3DArchitects%2BDaughter;" parent="1" vertex="1">
          <mxGeometry x="-390" y="495" width="80" height="80" as="geometry" />
        </mxCell>
        <mxCell id="L3NOBXTdYQaS6EHQkUNU-66" style="edgeStyle=orthogonalEdgeStyle;rounded=0;sketch=1;hachureGap=4;jiggle=2;curveFitting=1;orthogonalLoop=1;jettySize=auto;html=1;entryX=0.002;entryY=0.589;entryDx=0;entryDy=0;entryPerimeter=0;fontFamily=Architects Daughter;fontSource=https%3A%2F%2Ffonts.googleapis.com%2Fcss%3Ffamily%3DArchitects%2BDaughter;" parent="1" source="L3NOBXTdYQaS6EHQkUNU-64" target="L3NOBXTdYQaS6EHQkUNU-47" edge="1">
          <mxGeometry relative="1" as="geometry" />
        </mxCell>
        <mxCell id="L3NOBXTdYQaS6EHQkUNU-67" value="&amp;nbsp;1 : N&amp;nbsp;" style="edgeLabel;html=1;align=center;verticalAlign=middle;resizable=0;points=[];sketch=1;hachureGap=4;jiggle=2;curveFitting=1;fontFamily=Architects Daughter;fontSource=https%3A%2F%2Ffonts.googleapis.com%2Fcss%3Ffamily%3DArchitects%2BDaughter;" parent="L3NOBXTdYQaS6EHQkUNU-66" vertex="1" connectable="0">
          <mxGeometry x="-0.0325" y="1" relative="1" as="geometry">
            <mxPoint as="offset" />
          </mxGeometry>
        </mxCell>
        <mxCell id="L3NOBXTdYQaS6EHQkUNU-69" value="1 : n" style="text;html=1;align=center;verticalAlign=middle;resizable=0;points=[];autosize=1;strokeColor=none;fillColor=none;fontFamily=Architects Daughter;fontSource=https%3A%2F%2Ffonts.googleapis.com%2Fcss%3Ffamily%3DArchitects%2BDaughter;" parent="1" vertex="1">
          <mxGeometry x="-370" y="468" width="40" height="30" as="geometry" />
        </mxCell>
        <mxCell id="L3NOBXTdYQaS6EHQkUNU-70" value="tipo" style="ellipse;whiteSpace=wrap;html=1;sketch=1;hachureGap=4;jiggle=2;curveFitting=1;fontFamily=Architects Daughter;fontSource=https%3A%2F%2Ffonts.googleapis.com%2Fcss%3Ffamily%3DArchitects%2BDaughter;" parent="1" vertex="1">
          <mxGeometry x="-20" y="790" width="100" height="40" as="geometry" />
        </mxCell>
        <mxCell id="L3NOBXTdYQaS6EHQkUNU-71" value="altura_suelo" style="ellipse;whiteSpace=wrap;html=1;sketch=1;hachureGap=4;jiggle=2;curveFitting=1;fontFamily=Architects Daughter;fontSource=https%3A%2F%2Ffonts.googleapis.com%2Fcss%3Ffamily%3DArchitects%2BDaughter;" parent="1" vertex="1">
          <mxGeometry x="-150" y="790" width="100" height="40" as="geometry" />
        </mxCell>
        <mxCell id="L3NOBXTdYQaS6EHQkUNU-82" value="" style="edgeStyle=orthogonalEdgeStyle;rounded=0;sketch=1;hachureGap=4;jiggle=2;curveFitting=1;orthogonalLoop=1;jettySize=auto;html=1;fontFamily=Architects Daughter;fontSource=https%3A%2F%2Ffonts.googleapis.com%2Fcss%3Ffamily%3DArchitects%2BDaughter;" parent="1" source="L3NOBXTdYQaS6EHQkUNU-80" target="L3NOBXTdYQaS6EHQkUNU-5" edge="1">
          <mxGeometry relative="1" as="geometry" />
        </mxCell>
        <mxCell id="L3NOBXTdYQaS6EHQkUNU-84" value="&amp;nbsp;1 : n&amp;nbsp;" style="edgeLabel;html=1;align=center;verticalAlign=middle;resizable=0;points=[];sketch=1;hachureGap=4;jiggle=2;curveFitting=1;fontFamily=Architects Daughter;fontSource=https%3A%2F%2Ffonts.googleapis.com%2Fcss%3Ffamily%3DArchitects%2BDaughter;" parent="L3NOBXTdYQaS6EHQkUNU-82" vertex="1" connectable="0">
          <mxGeometry x="-0.0481" y="-1" relative="1" as="geometry">
            <mxPoint as="offset" />
          </mxGeometry>
        </mxCell>
        <mxCell id="L3NOBXTdYQaS6EHQkUNU-80" value="trabaja" style="rhombus;whiteSpace=wrap;html=1;fontFamily=Architects Daughter;rounded=0;sketch=1;hachureGap=4;jiggle=2;curveFitting=1;fontSource=https%3A%2F%2Ffonts.googleapis.com%2Fcss%3Ffamily%3DArchitects%2BDaughter;" parent="1" vertex="1">
          <mxGeometry x="-810" y="495" width="80" height="80" as="geometry" />
        </mxCell>
        <mxCell id="L3NOBXTdYQaS6EHQkUNU-85" value="n : m" style="text;html=1;align=center;verticalAlign=middle;resizable=0;points=[];autosize=1;strokeColor=none;fillColor=none;fontFamily=Architects Daughter;fontSource=https%3A%2F%2Ffonts.googleapis.com%2Fcss%3Ffamily%3DArchitects%2BDaughter;" parent="1" vertex="1">
          <mxGeometry x="-795" y="468" width="50" height="30" as="geometry" />
        </mxCell>
        <mxCell id="L3NOBXTdYQaS6EHQkUNU-108" value="" style="edgeStyle=orthogonalEdgeStyle;rounded=0;sketch=1;hachureGap=4;jiggle=2;curveFitting=1;orthogonalLoop=1;jettySize=auto;html=1;fontFamily=Architects Daughter;fontSource=https%3A%2F%2Ffonts.googleapis.com%2Fcss%3Ffamily%3DArchitects%2BDaughter;" parent="1" source="L3NOBXTdYQaS6EHQkUNU-86" target="L3NOBXTdYQaS6EHQkUNU-107" edge="1">
          <mxGeometry relative="1" as="geometry" />
        </mxCell>
        <mxCell id="L3NOBXTdYQaS6EHQkUNU-113" value="1 : n&amp;nbsp;" style="edgeLabel;html=1;align=center;verticalAlign=middle;resizable=0;points=[];sketch=1;hachureGap=4;jiggle=2;curveFitting=1;fontFamily=Architects Daughter;fontSource=https%3A%2F%2Ffonts.googleapis.com%2Fcss%3Ffamily%3DArchitects%2BDaughter;" parent="L3NOBXTdYQaS6EHQkUNU-108" vertex="1" connectable="0">
          <mxGeometry x="-0.1055" y="-1" relative="1" as="geometry">
            <mxPoint as="offset" />
          </mxGeometry>
        </mxCell>
        <mxCell id="L3NOBXTdYQaS6EHQkUNU-125" value="" style="edgeStyle=orthogonalEdgeStyle;rounded=0;sketch=1;hachureGap=4;jiggle=2;curveFitting=1;orthogonalLoop=1;jettySize=auto;html=1;fontFamily=Architects Daughter;fontSource=https%3A%2F%2Ffonts.googleapis.com%2Fcss%3Ffamily%3DArchitects%2BDaughter;" parent="1" source="L3NOBXTdYQaS6EHQkUNU-86" target="L3NOBXTdYQaS6EHQkUNU-124" edge="1">
          <mxGeometry relative="1" as="geometry">
            <Array as="points">
              <mxPoint x="-1370" y="640" />
              <mxPoint x="-1370" y="640" />
            </Array>
          </mxGeometry>
        </mxCell>
        <mxCell id="L3NOBXTdYQaS6EHQkUNU-128" value="1 : n&amp;nbsp;" style="edgeLabel;html=1;align=center;verticalAlign=middle;resizable=0;points=[];sketch=1;hachureGap=4;jiggle=2;curveFitting=1;fontFamily=Architects Daughter;fontSource=https%3A%2F%2Ffonts.googleapis.com%2Fcss%3Ffamily%3DArchitects%2BDaughter;" parent="L3NOBXTdYQaS6EHQkUNU-125" vertex="1" connectable="0">
          <mxGeometry x="-0.1169" relative="1" as="geometry">
            <mxPoint as="offset" />
          </mxGeometry>
        </mxCell>
        <mxCell id="heVfO0h5czRBwWw8JGmx-11" style="edgeStyle=orthogonalEdgeStyle;rounded=0;sketch=1;hachureGap=4;jiggle=2;curveFitting=1;orthogonalLoop=1;jettySize=auto;html=1;entryX=0.5;entryY=1;entryDx=0;entryDy=0;fontFamily=Architects Daughter;fontSource=https%3A%2F%2Ffonts.googleapis.com%2Fcss%3Ffamily%3DArchitects%2BDaughter;endArrow=none;endFill=0;" edge="1" parent="1" source="L3NOBXTdYQaS6EHQkUNU-86" target="L3NOBXTdYQaS6EHQkUNU-87">
          <mxGeometry relative="1" as="geometry" />
        </mxCell>
        <mxCell id="heVfO0h5czRBwWw8JGmx-12" style="edgeStyle=orthogonalEdgeStyle;rounded=0;sketch=1;hachureGap=4;jiggle=2;curveFitting=1;orthogonalLoop=1;jettySize=auto;html=1;entryX=0.5;entryY=1;entryDx=0;entryDy=0;fontFamily=Architects Daughter;fontSource=https%3A%2F%2Ffonts.googleapis.com%2Fcss%3Ffamily%3DArchitects%2BDaughter;endArrow=none;endFill=0;" edge="1" parent="1" source="L3NOBXTdYQaS6EHQkUNU-86" target="L3NOBXTdYQaS6EHQkUNU-90">
          <mxGeometry relative="1" as="geometry" />
        </mxCell>
        <mxCell id="heVfO0h5czRBwWw8JGmx-18" style="edgeStyle=orthogonalEdgeStyle;rounded=0;sketch=1;hachureGap=4;jiggle=2;curveFitting=1;orthogonalLoop=1;jettySize=auto;html=1;fontFamily=Architects Daughter;fontSource=https%3A%2F%2Ffonts.googleapis.com%2Fcss%3Ffamily%3DArchitects%2BDaughter;entryX=0;entryY=0.5;entryDx=0;entryDy=0;" edge="1" parent="1" source="L3NOBXTdYQaS6EHQkUNU-86" target="heVfO0h5czRBwWw8JGmx-17">
          <mxGeometry relative="1" as="geometry">
            <mxPoint x="-1080" y="790" as="targetPoint" />
            <Array as="points">
              <mxPoint x="-1290" y="820" />
              <mxPoint x="-990" y="820" />
            </Array>
          </mxGeometry>
        </mxCell>
        <mxCell id="L3NOBXTdYQaS6EHQkUNU-86" value="cocina" style="rounded=0;whiteSpace=wrap;html=1;sketch=1;hachureGap=4;jiggle=2;curveFitting=1;fontFamily=Architects Daughter;fontSource=https%3A%2F%2Ffonts.googleapis.com%2Fcss%3Ffamily%3DArchitects%2BDaughter;" parent="1" vertex="1">
          <mxGeometry x="-1390" y="505" width="120" height="60" as="geometry" />
        </mxCell>
        <mxCell id="L3NOBXTdYQaS6EHQkUNU-87" value="n_muebles" style="ellipse;whiteSpace=wrap;html=1;sketch=1;hachureGap=4;jiggle=2;curveFitting=1;fontFamily=Architects Daughter;fontSource=https%3A%2F%2Ffonts.googleapis.com%2Fcss%3Ffamily%3DArchitects%2BDaughter;dashed=1;dashPattern=8 8;" parent="1" vertex="1">
          <mxGeometry x="-1430" y="430" width="100" height="40" as="geometry" />
        </mxCell>
        <mxCell id="L3NOBXTdYQaS6EHQkUNU-90" value="codigo" style="ellipse;whiteSpace=wrap;html=1;sketch=1;hachureGap=4;jiggle=2;curveFitting=1;fontFamily=Architects Daughter;fontSource=https%3A%2F%2Ffonts.googleapis.com%2Fcss%3Ffamily%3DArchitects%2BDaughter;fillColor=#60a917;fontColor=#ffffff;strokeColor=#2D7600;" parent="1" vertex="1">
          <mxGeometry x="-1330" y="428" width="100" height="40" as="geometry" />
        </mxCell>
        <mxCell id="L3NOBXTdYQaS6EHQkUNU-93" value="" style="edgeStyle=orthogonalEdgeStyle;rounded=0;sketch=1;hachureGap=4;jiggle=2;curveFitting=1;orthogonalLoop=1;jettySize=auto;html=1;fontFamily=Architects Daughter;fontSource=https%3A%2F%2Ffonts.googleapis.com%2Fcss%3Ffamily%3DArchitects%2BDaughter;" parent="1" source="L3NOBXTdYQaS6EHQkUNU-91" target="L3NOBXTdYQaS6EHQkUNU-86" edge="1">
          <mxGeometry relative="1" as="geometry">
            <Array as="points">
              <mxPoint x="-1225" y="605" />
              <mxPoint x="-1225" y="560" />
            </Array>
          </mxGeometry>
        </mxCell>
        <mxCell id="L3NOBXTdYQaS6EHQkUNU-98" value="&amp;nbsp;1 : n&amp;nbsp;" style="edgeLabel;html=1;align=center;verticalAlign=middle;resizable=0;points=[];sketch=1;hachureGap=4;jiggle=2;curveFitting=1;fontFamily=Architects Daughter;fontSource=https%3A%2F%2Ffonts.googleapis.com%2Fcss%3Ffamily%3DArchitects%2BDaughter;" parent="L3NOBXTdYQaS6EHQkUNU-93" vertex="1" connectable="0">
          <mxGeometry x="-0.167" y="-1" relative="1" as="geometry">
            <mxPoint as="offset" />
          </mxGeometry>
        </mxCell>
        <mxCell id="L3NOBXTdYQaS6EHQkUNU-91" value="vende" style="rhombus;whiteSpace=wrap;html=1;fontFamily=Architects Daughter;rounded=0;sketch=1;hachureGap=4;jiggle=2;curveFitting=1;fontSource=https%3A%2F%2Ffonts.googleapis.com%2Fcss%3Ffamily%3DArchitects%2BDaughter;" parent="1" vertex="1">
          <mxGeometry x="-1180" y="565" width="80" height="80" as="geometry" />
        </mxCell>
        <mxCell id="L3NOBXTdYQaS6EHQkUNU-99" value="montador" style="rounded=0;whiteSpace=wrap;html=1;sketch=1;hachureGap=4;jiggle=2;curveFitting=1;fontFamily=Architects Daughter;fontSource=https%3A%2F%2Ffonts.googleapis.com%2Fcss%3Ffamily%3DArchitects%2BDaughter;" parent="1" vertex="1">
          <mxGeometry x="-1850" y="505" width="120" height="60" as="geometry" />
        </mxCell>
        <mxCell id="L3NOBXTdYQaS6EHQkUNU-100" value="nombre" style="ellipse;whiteSpace=wrap;html=1;sketch=1;hachureGap=4;jiggle=2;curveFitting=1;fontFamily=Architects Daughter;fontSource=https%3A%2F%2Ffonts.googleapis.com%2Fcss%3Ffamily%3DArchitects%2BDaughter;" parent="1" vertex="1">
          <mxGeometry x="-1780" y="290" width="100" height="40" as="geometry" />
        </mxCell>
        <mxCell id="L3NOBXTdYQaS6EHQkUNU-101" style="edgeStyle=orthogonalEdgeStyle;rounded=0;sketch=1;hachureGap=4;jiggle=2;curveFitting=1;orthogonalLoop=1;jettySize=auto;html=1;entryX=0.5;entryY=0;entryDx=0;entryDy=0;fontFamily=Architects Daughter;fontSource=https%3A%2F%2Ffonts.googleapis.com%2Fcss%3Ffamily%3DArchitects%2BDaughter;endArrow=none;endFill=0;" parent="1" source="L3NOBXTdYQaS6EHQkUNU-102" target="L3NOBXTdYQaS6EHQkUNU-99" edge="1">
          <mxGeometry relative="1" as="geometry" />
        </mxCell>
        <mxCell id="L3NOBXTdYQaS6EHQkUNU-102" value="direccion" style="ellipse;whiteSpace=wrap;html=1;sketch=1;hachureGap=4;jiggle=2;curveFitting=1;fontFamily=Architects Daughter;fontSource=https%3A%2F%2Ffonts.googleapis.com%2Fcss%3Ffamily%3DArchitects%2BDaughter;" parent="1" vertex="1">
          <mxGeometry x="-1880" y="340" width="100" height="40" as="geometry" />
        </mxCell>
        <mxCell id="L3NOBXTdYQaS6EHQkUNU-103" style="edgeStyle=orthogonalEdgeStyle;rounded=0;sketch=1;hachureGap=4;jiggle=2;curveFitting=1;orthogonalLoop=1;jettySize=auto;html=1;entryX=0.5;entryY=0;entryDx=0;entryDy=0;fontFamily=Architects Daughter;fontSource=https%3A%2F%2Ffonts.googleapis.com%2Fcss%3Ffamily%3DArchitects%2BDaughter;endArrow=none;endFill=0;" parent="1" target="L3NOBXTdYQaS6EHQkUNU-99" edge="1">
          <mxGeometry relative="1" as="geometry">
            <mxPoint x="-1740" y="380" as="sourcePoint" />
          </mxGeometry>
        </mxCell>
        <mxCell id="L3NOBXTdYQaS6EHQkUNU-104" value="telefono" style="ellipse;whiteSpace=wrap;html=1;sketch=1;hachureGap=4;jiggle=2;curveFitting=1;fontFamily=Architects Daughter;fontSource=https%3A%2F%2Ffonts.googleapis.com%2Fcss%3Ffamily%3DArchitects%2BDaughter;" parent="1" vertex="1">
          <mxGeometry x="-1780" y="330" width="100" height="40" as="geometry" />
        </mxCell>
        <mxCell id="L3NOBXTdYQaS6EHQkUNU-105" value="NIF" style="ellipse;whiteSpace=wrap;html=1;sketch=1;hachureGap=4;jiggle=2;curveFitting=1;fontFamily=Architects Daughter;fontSource=https%3A%2F%2Ffonts.googleapis.com%2Fcss%3Ffamily%3DArchitects%2BDaughter;fillColor=#60a917;fontColor=#ffffff;strokeColor=#2D7600;" parent="1" vertex="1">
          <mxGeometry x="-1890" y="300" width="100" height="40" as="geometry" />
        </mxCell>
        <mxCell id="L3NOBXTdYQaS6EHQkUNU-106" value="n_cocinas" style="ellipse;whiteSpace=wrap;html=1;sketch=1;hachureGap=4;jiggle=2;curveFitting=1;fontFamily=Architects Daughter;fontSource=https%3A%2F%2Ffonts.googleapis.com%2Fcss%3Ffamily%3DArchitects%2BDaughter;strokeColor=default;dashed=1;" parent="1" vertex="1">
          <mxGeometry x="-1840" y="260" width="100" height="40" as="geometry" />
        </mxCell>
        <mxCell id="L3NOBXTdYQaS6EHQkUNU-107" value="monta" style="rhombus;whiteSpace=wrap;html=1;fontFamily=Architects Daughter;rounded=0;sketch=1;hachureGap=4;jiggle=2;curveFitting=1;fontSource=https%3A%2F%2Ffonts.googleapis.com%2Fcss%3Ffamily%3DArchitects%2BDaughter;" parent="1" vertex="1">
          <mxGeometry x="-1570" y="495" width="80" height="80" as="geometry" />
        </mxCell>
        <mxCell id="L3NOBXTdYQaS6EHQkUNU-110" style="edgeStyle=orthogonalEdgeStyle;rounded=0;sketch=1;hachureGap=4;jiggle=2;curveFitting=1;orthogonalLoop=1;jettySize=auto;html=1;entryX=1.004;entryY=0.417;entryDx=0;entryDy=0;entryPerimeter=0;fontFamily=Architects Daughter;fontSource=https%3A%2F%2Ffonts.googleapis.com%2Fcss%3Ffamily%3DArchitects%2BDaughter;" parent="1" source="L3NOBXTdYQaS6EHQkUNU-107" target="L3NOBXTdYQaS6EHQkUNU-99" edge="1">
          <mxGeometry relative="1" as="geometry" />
        </mxCell>
        <mxCell id="L3NOBXTdYQaS6EHQkUNU-112" value="&amp;nbsp;1 : n&amp;nbsp;" style="edgeLabel;html=1;align=center;verticalAlign=middle;resizable=0;points=[];sketch=1;hachureGap=4;jiggle=2;curveFitting=1;fontFamily=Architects Daughter;fontSource=https%3A%2F%2Ffonts.googleapis.com%2Fcss%3Ffamily%3DArchitects%2BDaughter;" parent="L3NOBXTdYQaS6EHQkUNU-110" vertex="1" connectable="0">
          <mxGeometry x="-0.2801" y="-3" relative="1" as="geometry">
            <mxPoint as="offset" />
          </mxGeometry>
        </mxCell>
        <mxCell id="L3NOBXTdYQaS6EHQkUNU-114" value="N : M" style="text;html=1;align=center;verticalAlign=middle;resizable=0;points=[];autosize=1;strokeColor=none;fillColor=none;fontFamily=Architects Daughter;fontSource=https%3A%2F%2Ffonts.googleapis.com%2Fcss%3Ffamily%3DArchitects%2BDaughter;" parent="1" vertex="1">
          <mxGeometry x="-1555" y="468" width="50" height="30" as="geometry" />
        </mxCell>
        <mxCell id="L3NOBXTdYQaS6EHQkUNU-115" value="cliente" style="rounded=0;whiteSpace=wrap;html=1;sketch=1;hachureGap=4;jiggle=2;curveFitting=1;fontFamily=Architects Daughter;fontSource=https%3A%2F%2Ffonts.googleapis.com%2Fcss%3Ffamily%3DArchitects%2BDaughter;" parent="1" vertex="1">
          <mxGeometry x="-1390" y="860" width="120" height="60" as="geometry" />
        </mxCell>
        <mxCell id="L3NOBXTdYQaS6EHQkUNU-116" style="edgeStyle=orthogonalEdgeStyle;rounded=0;sketch=1;hachureGap=4;jiggle=2;curveFitting=1;orthogonalLoop=1;jettySize=auto;html=1;entryX=0;entryY=0.5;entryDx=0;entryDy=0;fontFamily=Architects Daughter;fontSource=https%3A%2F%2Ffonts.googleapis.com%2Fcss%3Ffamily%3DArchitects%2BDaughter;endArrow=none;endFill=0;" parent="1" source="L3NOBXTdYQaS6EHQkUNU-117" target="L3NOBXTdYQaS6EHQkUNU-115" edge="1">
          <mxGeometry relative="1" as="geometry" />
        </mxCell>
        <mxCell id="L3NOBXTdYQaS6EHQkUNU-117" value="nombre" style="ellipse;whiteSpace=wrap;html=1;sketch=1;hachureGap=4;jiggle=2;curveFitting=1;fontFamily=Architects Daughter;fontSource=https%3A%2F%2Ffonts.googleapis.com%2Fcss%3Ffamily%3DArchitects%2BDaughter;" parent="1" vertex="1">
          <mxGeometry x="-1555" y="830" width="100" height="40" as="geometry" />
        </mxCell>
        <mxCell id="L3NOBXTdYQaS6EHQkUNU-118" style="edgeStyle=orthogonalEdgeStyle;rounded=0;sketch=1;hachureGap=4;jiggle=2;curveFitting=1;orthogonalLoop=1;jettySize=auto;html=1;fontFamily=Architects Daughter;fontSource=https%3A%2F%2Ffonts.googleapis.com%2Fcss%3Ffamily%3DArchitects%2BDaughter;endArrow=none;endFill=0;" parent="1" source="L3NOBXTdYQaS6EHQkUNU-119" edge="1">
          <mxGeometry relative="1" as="geometry">
            <mxPoint x="-1404.42" y="890" as="targetPoint" />
          </mxGeometry>
        </mxCell>
        <mxCell id="L3NOBXTdYQaS6EHQkUNU-119" value="direccion" style="ellipse;whiteSpace=wrap;html=1;sketch=1;hachureGap=4;jiggle=2;curveFitting=1;fontFamily=Architects Daughter;fontSource=https%3A%2F%2Ffonts.googleapis.com%2Fcss%3Ffamily%3DArchitects%2BDaughter;" parent="1" vertex="1">
          <mxGeometry x="-1555" y="870" width="100" height="40" as="geometry" />
        </mxCell>
        <mxCell id="L3NOBXTdYQaS6EHQkUNU-120" style="edgeStyle=orthogonalEdgeStyle;rounded=0;sketch=1;hachureGap=4;jiggle=2;curveFitting=1;orthogonalLoop=1;jettySize=auto;html=1;entryX=0;entryY=0.5;entryDx=0;entryDy=0;fontFamily=Architects Daughter;fontSource=https%3A%2F%2Ffonts.googleapis.com%2Fcss%3Ffamily%3DArchitects%2BDaughter;endArrow=none;endFill=0;" parent="1" source="L3NOBXTdYQaS6EHQkUNU-121" target="L3NOBXTdYQaS6EHQkUNU-115" edge="1">
          <mxGeometry relative="1" as="geometry" />
        </mxCell>
        <mxCell id="L3NOBXTdYQaS6EHQkUNU-121" value="telefono" style="ellipse;whiteSpace=wrap;html=1;sketch=1;hachureGap=4;jiggle=2;curveFitting=1;fontFamily=Architects Daughter;fontSource=https%3A%2F%2Ffonts.googleapis.com%2Fcss%3Ffamily%3DArchitects%2BDaughter;" parent="1" vertex="1">
          <mxGeometry x="-1555" y="910" width="100" height="40" as="geometry" />
        </mxCell>
        <mxCell id="L3NOBXTdYQaS6EHQkUNU-122" style="edgeStyle=orthogonalEdgeStyle;rounded=0;sketch=1;hachureGap=4;jiggle=2;curveFitting=1;orthogonalLoop=1;jettySize=auto;html=1;entryX=0;entryY=0.5;entryDx=0;entryDy=0;fontFamily=Architects Daughter;fontSource=https%3A%2F%2Ffonts.googleapis.com%2Fcss%3Ffamily%3DArchitects%2BDaughter;endArrow=none;endFill=0;" parent="1" source="L3NOBXTdYQaS6EHQkUNU-123" target="L3NOBXTdYQaS6EHQkUNU-115" edge="1">
          <mxGeometry relative="1" as="geometry" />
        </mxCell>
        <mxCell id="L3NOBXTdYQaS6EHQkUNU-123" value="NIF" style="ellipse;whiteSpace=wrap;html=1;sketch=1;hachureGap=4;jiggle=2;curveFitting=1;fontFamily=Architects Daughter;fontSource=https%3A%2F%2Ffonts.googleapis.com%2Fcss%3Ffamily%3DArchitects%2BDaughter;fillColor=#60a917;fontColor=#ffffff;strokeColor=#2D7600;" parent="1" vertex="1">
          <mxGeometry x="-1555" y="790" width="100" height="40" as="geometry" />
        </mxCell>
        <mxCell id="L3NOBXTdYQaS6EHQkUNU-126" style="edgeStyle=orthogonalEdgeStyle;rounded=0;sketch=1;hachureGap=4;jiggle=2;curveFitting=1;orthogonalLoop=1;jettySize=auto;html=1;fontFamily=Architects Daughter;fontSource=https%3A%2F%2Ffonts.googleapis.com%2Fcss%3Ffamily%3DArchitects%2BDaughter;" parent="1" source="L3NOBXTdYQaS6EHQkUNU-124" target="L3NOBXTdYQaS6EHQkUNU-115" edge="1">
          <mxGeometry relative="1" as="geometry">
            <Array as="points">
              <mxPoint x="-1370" y="820" />
              <mxPoint x="-1370" y="820" />
            </Array>
          </mxGeometry>
        </mxCell>
        <mxCell id="L3NOBXTdYQaS6EHQkUNU-127" value="1 : n&amp;nbsp;" style="edgeLabel;html=1;align=center;verticalAlign=middle;resizable=0;points=[];sketch=1;hachureGap=4;jiggle=2;curveFitting=1;fontFamily=Architects Daughter;fontSource=https%3A%2F%2Ffonts.googleapis.com%2Fcss%3Ffamily%3DArchitects%2BDaughter;" parent="L3NOBXTdYQaS6EHQkUNU-126" vertex="1" connectable="0">
          <mxGeometry x="-0.2848" y="-2" relative="1" as="geometry">
            <mxPoint x="1" as="offset" />
          </mxGeometry>
        </mxCell>
        <mxCell id="L3NOBXTdYQaS6EHQkUNU-124" value="compra" style="rhombus;whiteSpace=wrap;html=1;fontFamily=Architects Daughter;rounded=0;sketch=1;hachureGap=4;jiggle=2;curveFitting=1;fontSource=https%3A%2F%2Ffonts.googleapis.com%2Fcss%3Ffamily%3DArchitects%2BDaughter;" parent="1" vertex="1">
          <mxGeometry x="-1410" y="670" width="80" height="80" as="geometry" />
        </mxCell>
        <mxCell id="L3NOBXTdYQaS6EHQkUNU-129" value="n : m" style="text;html=1;align=center;verticalAlign=middle;resizable=0;points=[];autosize=1;strokeColor=none;fillColor=none;fontFamily=Architects Daughter;fontSource=https%3A%2F%2Ffonts.googleapis.com%2Fcss%3Ffamily%3DArchitects%2BDaughter;" parent="1" vertex="1">
          <mxGeometry x="-1460" y="700" width="50" height="30" as="geometry" />
        </mxCell>
        <mxCell id="heVfO0h5czRBwWw8JGmx-1" value="multivaluado" style="text;html=1;align=center;verticalAlign=middle;resizable=0;points=[];autosize=1;strokeColor=none;fillColor=none;fontFamily=Architects Daughter;fontSource=https%3A%2F%2Ffonts.googleapis.com%2Fcss%3Ffamily%3DArchitects%2BDaughter;" vertex="1" parent="1">
          <mxGeometry x="-539.42" y="320" width="90" height="30" as="geometry" />
        </mxCell>
        <mxCell id="heVfO0h5czRBwWw8JGmx-2" value="" style="endArrow=classic;html=1;rounded=0;sketch=1;hachureGap=4;jiggle=2;curveFitting=1;fontFamily=Architects Daughter;fontSource=https%3A%2F%2Ffonts.googleapis.com%2Fcss%3Ffamily%3DArchitects%2BDaughter;" edge="1" parent="1" target="L3NOBXTdYQaS6EHQkUNU-15">
          <mxGeometry width="50" height="50" relative="1" as="geometry">
            <mxPoint x="-540" y="500" as="sourcePoint" />
            <mxPoint x="-450" y="390" as="targetPoint" />
            <Array as="points">
              <mxPoint x="-460" y="450" />
            </Array>
          </mxGeometry>
        </mxCell>
        <mxCell id="heVfO0h5czRBwWw8JGmx-3" value="codigo" style="ellipse;whiteSpace=wrap;html=1;sketch=1;hachureGap=4;jiggle=2;curveFitting=1;fontFamily=Architects Daughter;fontSource=https%3A%2F%2Ffonts.googleapis.com%2Fcss%3Ffamily%3DArchitects%2BDaughter;fillColor=#60a917;fontColor=#ffffff;strokeColor=#2D7600;" vertex="1" parent="1">
          <mxGeometry x="-90" y="360" width="100" height="40" as="geometry" />
        </mxCell>
        <mxCell id="heVfO0h5czRBwWw8JGmx-6" style="edgeStyle=orthogonalEdgeStyle;rounded=0;sketch=1;hachureGap=4;jiggle=2;curveFitting=1;orthogonalLoop=1;jettySize=auto;html=1;entryX=0.5;entryY=0;entryDx=0;entryDy=0;fontFamily=Architects Daughter;fontSource=https%3A%2F%2Ffonts.googleapis.com%2Fcss%3Ffamily%3DArchitects%2BDaughter;" edge="1" parent="1" source="heVfO0h5czRBwWw8JGmx-4" target="L3NOBXTdYQaS6EHQkUNU-61">
          <mxGeometry relative="1" as="geometry" />
        </mxCell>
        <mxCell id="heVfO0h5czRBwWw8JGmx-8" style="edgeStyle=orthogonalEdgeStyle;rounded=0;sketch=1;hachureGap=4;jiggle=2;curveFitting=1;orthogonalLoop=1;jettySize=auto;html=1;entryX=0.5;entryY=0;entryDx=0;entryDy=0;fontFamily=Architects Daughter;fontSource=https%3A%2F%2Ffonts.googleapis.com%2Fcss%3Ffamily%3DArchitects%2BDaughter;" edge="1" parent="1" source="heVfO0h5czRBwWw8JGmx-4" target="L3NOBXTdYQaS6EHQkUNU-50">
          <mxGeometry relative="1" as="geometry" />
        </mxCell>
        <mxCell id="heVfO0h5czRBwWw8JGmx-9" style="edgeStyle=orthogonalEdgeStyle;rounded=0;sketch=1;hachureGap=4;jiggle=2;curveFitting=1;orthogonalLoop=1;jettySize=auto;html=1;entryX=0.5;entryY=0;entryDx=0;entryDy=0;fontFamily=Architects Daughter;fontSource=https%3A%2F%2Ffonts.googleapis.com%2Fcss%3Ffamily%3DArchitects%2BDaughter;" edge="1" parent="1" source="heVfO0h5czRBwWw8JGmx-4" target="L3NOBXTdYQaS6EHQkUNU-48">
          <mxGeometry relative="1" as="geometry" />
        </mxCell>
        <mxCell id="heVfO0h5czRBwWw8JGmx-4" value="es un" style="triangle;whiteSpace=wrap;html=1;sketch=1;hachureGap=4;jiggle=2;curveFitting=1;fontFamily=Architects Daughter;fontSource=https%3A%2F%2Ffonts.googleapis.com%2Fcss%3Ffamily%3DArchitects%2BDaughter;rotation=-30;" vertex="1" parent="1">
          <mxGeometry x="-60" y="600" width="60" height="80" as="geometry" />
        </mxCell>
        <mxCell id="heVfO0h5czRBwWw8JGmx-7" style="edgeStyle=orthogonalEdgeStyle;rounded=0;sketch=1;hachureGap=4;jiggle=2;curveFitting=1;orthogonalLoop=1;jettySize=auto;html=1;entryX=0.45;entryY=-0.025;entryDx=0;entryDy=0;entryPerimeter=0;fontFamily=Architects Daughter;fontSource=https%3A%2F%2Ffonts.googleapis.com%2Fcss%3Ffamily%3DArchitects%2BDaughter;" edge="1" parent="1" source="heVfO0h5czRBwWw8JGmx-4" target="L3NOBXTdYQaS6EHQkUNU-6">
          <mxGeometry relative="1" as="geometry" />
        </mxCell>
        <mxCell id="heVfO0h5czRBwWw8JGmx-10" value="tipo" style="ellipse;whiteSpace=wrap;html=1;sketch=1;hachureGap=4;jiggle=2;curveFitting=1;fontFamily=Architects Daughter;fontSource=https%3A%2F%2Ffonts.googleapis.com%2Fcss%3Ffamily%3DArchitects%2BDaughter;" vertex="1" parent="1">
          <mxGeometry y="610" width="60" height="20" as="geometry" />
        </mxCell>
        <mxCell id="heVfO0h5czRBwWw8JGmx-14" value="calculado" style="text;html=1;align=center;verticalAlign=middle;resizable=0;points=[];autosize=1;strokeColor=none;fillColor=none;fontFamily=Architects Daughter;fontSource=https%3A%2F%2Ffonts.googleapis.com%2Fcss%3Ffamily%3DArchitects%2BDaughter;" vertex="1" parent="1">
          <mxGeometry x="-1825" y="240" width="70" height="30" as="geometry" />
        </mxCell>
        <mxCell id="heVfO0h5czRBwWw8JGmx-15" value="id" style="ellipse;whiteSpace=wrap;html=1;sketch=1;hachureGap=4;jiggle=2;curveFitting=1;fontFamily=Architects Daughter;fontSource=https%3A%2F%2Ffonts.googleapis.com%2Fcss%3Ffamily%3DArchitects%2BDaughter;" vertex="1" parent="1">
          <mxGeometry x="-380" y="580" width="60" height="30" as="geometry" />
        </mxCell>
        <mxCell id="heVfO0h5czRBwWw8JGmx-20" style="edgeStyle=orthogonalEdgeStyle;rounded=0;sketch=1;hachureGap=4;jiggle=2;curveFitting=1;orthogonalLoop=1;jettySize=auto;html=1;entryX=1;entryY=0.5;entryDx=0;entryDy=0;fontFamily=Architects Daughter;fontSource=https%3A%2F%2Ffonts.googleapis.com%2Fcss%3Ffamily%3DArchitects%2BDaughter;" edge="1" parent="1" source="heVfO0h5czRBwWw8JGmx-17" target="L3NOBXTdYQaS6EHQkUNU-47">
          <mxGeometry relative="1" as="geometry">
            <Array as="points">
              <mxPoint x="-800" y="820" />
              <mxPoint x="-800" y="990" />
              <mxPoint x="310" y="990" />
              <mxPoint x="310" y="525" />
            </Array>
          </mxGeometry>
        </mxCell>
        <mxCell id="heVfO0h5czRBwWw8JGmx-17" value="compone" style="rhombus;whiteSpace=wrap;html=1;sketch=1;hachureGap=4;jiggle=2;curveFitting=1;fontFamily=Architects Daughter;fontSource=https%3A%2F%2Ffonts.googleapis.com%2Fcss%3Ffamily%3DArchitects%2BDaughter;" vertex="1" parent="1">
          <mxGeometry x="-920" y="780" width="80" height="80" as="geometry" />
        </mxCell>
        <mxCell id="heVfO0h5czRBwWw8JGmx-22" value="calculado" style="text;html=1;align=center;verticalAlign=middle;resizable=0;points=[];autosize=1;strokeColor=none;fillColor=none;fontFamily=Architects Daughter;fontSource=https%3A%2F%2Ffonts.googleapis.com%2Fcss%3Ffamily%3DArchitects%2BDaughter;" vertex="1" parent="1">
          <mxGeometry x="-1415" y="400" width="70" height="30" as="geometry" />
        </mxCell>
        <mxCell id="heVfO0h5czRBwWw8JGmx-30" value="cede" style="rhombus;whiteSpace=wrap;html=1;fontFamily=Architects Daughter;rounded=0;sketch=1;hachureGap=4;jiggle=2;curveFitting=1;fontSource=https%3A%2F%2Ffonts.googleapis.com%2Fcss%3Ffamily%3DArchitects%2BDaughter;" vertex="1" parent="1">
          <mxGeometry x="-1180" y="460" width="80" height="80" as="geometry" />
        </mxCell>
        <mxCell id="heVfO0h5czRBwWw8JGmx-31" style="edgeStyle=orthogonalEdgeStyle;rounded=0;sketch=1;hachureGap=4;jiggle=2;curveFitting=1;orthogonalLoop=1;jettySize=auto;html=1;entryX=0.999;entryY=0.356;entryDx=0;entryDy=0;entryPerimeter=0;fontFamily=Architects Daughter;fontSource=https%3A%2F%2Ffonts.googleapis.com%2Fcss%3Ffamily%3DArchitects%2BDaughter;" edge="1" parent="1" source="heVfO0h5czRBwWw8JGmx-30" target="L3NOBXTdYQaS6EHQkUNU-86">
          <mxGeometry relative="1" as="geometry" />
        </mxCell>
        <mxCell id="heVfO0h5czRBwWw8JGmx-38" value="0 : n" style="edgeLabel;html=1;align=center;verticalAlign=middle;resizable=0;points=[];sketch=1;hachureGap=4;jiggle=2;curveFitting=1;fontFamily=Architects Daughter;fontSource=https%3A%2F%2Ffonts.googleapis.com%2Fcss%3Ffamily%3DArchitects%2BDaughter;" vertex="1" connectable="0" parent="heVfO0h5czRBwWw8JGmx-31">
          <mxGeometry x="-0.0785" relative="1" as="geometry">
            <mxPoint as="offset" />
          </mxGeometry>
        </mxCell>
        <mxCell id="heVfO0h5czRBwWw8JGmx-35" value="" style="edgeStyle=orthogonalEdgeStyle;rounded=0;sketch=1;hachureGap=4;jiggle=2;curveFitting=1;orthogonalLoop=1;jettySize=auto;html=1;entryX=0.5;entryY=0;entryDx=0;entryDy=0;fontFamily=Architects Daughter;fontSource=https%3A%2F%2Ffonts.googleapis.com%2Fcss%3Ffamily%3DArchitects%2BDaughter;" edge="1" parent="1" source="L3NOBXTdYQaS6EHQkUNU-47" target="heVfO0h5czRBwWw8JGmx-34">
          <mxGeometry relative="1" as="geometry">
            <mxPoint x="-45" y="582" as="sourcePoint" />
            <mxPoint x="-40" y="623" as="targetPoint" />
          </mxGeometry>
        </mxCell>
        <mxCell id="heVfO0h5czRBwWw8JGmx-34" value="" style="ellipse;shape=doubleEllipse;whiteSpace=wrap;html=1;aspect=fixed;sketch=1;hachureGap=4;jiggle=2;curveFitting=1;fontFamily=Architects Daughter;fontSource=https%3A%2F%2Ffonts.googleapis.com%2Fcss%3Ffamily%3DArchitects%2BDaughter;" vertex="1" parent="1">
          <mxGeometry x="-50" y="600" width="10" height="10" as="geometry" />
        </mxCell>
        <mxCell id="heVfO0h5czRBwWw8JGmx-37" value="1 : n" style="text;html=1;align=center;verticalAlign=middle;resizable=0;points=[];autosize=1;strokeColor=none;fillColor=none;fontFamily=Architects Daughter;fontSource=https%3A%2F%2Ffonts.googleapis.com%2Fcss%3Ffamily%3DArchitects%2BDaughter;" vertex="1" parent="1">
          <mxGeometry x="-1160" y="640" width="40" height="30" as="geometry" />
        </mxCell>
        <mxCell id="heVfO0h5czRBwWw8JGmx-40" value="1 : n" style="text;html=1;align=center;verticalAlign=middle;resizable=0;points=[];autosize=1;strokeColor=none;fillColor=none;fontFamily=Architects Daughter;fontSource=https%3A%2F%2Ffonts.googleapis.com%2Fcss%3Ffamily%3DArchitects%2BDaughter;" vertex="1" parent="1">
          <mxGeometry x="-1160" y="428" width="40" height="30" as="geometry" />
        </mxCell>
        <mxCell id="heVfO0h5czRBwWw8JGmx-41" value="1 : N" style="text;html=1;align=center;verticalAlign=middle;resizable=0;points=[];autosize=1;strokeColor=none;fillColor=none;fontFamily=Architects Daughter;fontSource=https%3A%2F%2Ffonts.googleapis.com%2Fcss%3Ffamily%3DArchitects%2BDaughter;" vertex="1" parent="1">
          <mxGeometry x="-900" y="858" width="40" height="30" as="geometry" />
        </mxCell>
      </root>
    </mxGraphModel>
  </diagram>
</mxfile>
